Normalized EMG Linear Envelopes
nRows=247
nColumns=4

endheader
time	 med_gas_r	  soleus_r	 tib_ant_r	
2.96069	  0.083114	  0.073998	  0.023678	
2.99395	  0.081590	  0.074907	  0.022933	
3.02722	  0.080083	  0.074908	  0.022293	
3.06048	  0.078923	  0.074031	  0.021862	
3.09375	  0.078299	  0.072658	  0.021622	
3.12702	  0.078440	  0.071417	  0.021544	
3.16028	  0.079496	  0.070686	  0.021565	
3.19355	  0.081712	  0.070590	  0.021642	
3.22681	  0.085037	  0.070829	  0.021801	
3.26008	  0.089231	  0.070920	  0.021977	
3.29335	  0.093763	  0.070530	  0.022068	
3.32661	  0.097407	  0.069663	  0.022026	
3.35988	  0.099421	  0.068369	  0.022016	
3.39315	  0.099980	  0.067033	  0.022176	
3.42641	  0.099580	  0.065921	  0.022563	
3.45968	  0.098377	  0.065297	  0.023099	
3.49294	  0.096836	  0.065041	  0.023666	
3.52621	  0.095594	  0.065033	  0.024085	
3.55948	  0.094732	  0.065067	  0.024062	
3.59274	  0.094152	  0.065036	  0.023504	
3.62601	  0.093943	  0.064913	  0.022597	
3.65927	  0.093940	  0.064405	  0.021559	
3.69254	  0.093750	  0.063320	  0.020585	
3.72581	  0.093260	  0.062013	  0.019825	
3.75907	  0.092828	  0.060765	  0.019402	
3.79234	  0.092517	  0.059886	  0.019399	
3.8256	  0.092102	  0.059562	  0.019889	
3.85887	  0.091816	  0.059956	  0.020813	
3.89214	  0.091756	  0.061128	  0.021913	
3.9254	  0.091509	  0.062910	  0.022794	
3.95867	  0.090519	  0.065210	  0.023042	
3.99194	  0.088653	  0.067933	  0.022600	
4.0252	  0.086330	  0.070930	  0.021791	
4.05847	  0.083832	  0.074146	  0.020959	
4.09173	  0.081512	  0.077399	  0.020355	
4.125	  0.079887	  0.080192	  0.020071	
4.15827	  0.079425	  0.081917	  0.020076	
4.19153	  0.080212	  0.082453	  0.020331	
4.2248	  0.081775	  0.081819	  0.020753	
4.25806	  0.083432	  0.079731	  0.021102	
4.29133	  0.084756	  0.076411	  0.021091	
4.3246	  0.085812	  0.072364	  0.020707	
4.35786	  0.086938	  0.068333	  0.020080	
4.39113	  0.088204	  0.064977	  0.019400	
4.4244	  0.089265	  0.062537	  0.018873	
4.45766	  0.089505	  0.060963	  0.018614	
4.49093	  0.088716	  0.059917	  0.018688	
4.52419	  0.087761	  0.059186	  0.019098	
4.55746	  0.087381	  0.058873	  0.019814	
4.59073	  0.087820	  0.059136	  0.020742	
4.62399	  0.089073	  0.060000	  0.021715	
4.65726	  0.090663	  0.061329	  0.022570	
4.69052	  0.091898	  0.062825	  0.023147	
4.72379	  0.092287	  0.064250	  0.023373	
4.75706	  0.091669	  0.065499	  0.023264	
4.79032	  0.090265	  0.066692	  0.022780	
4.82359	  0.088697	  0.067966	  0.021883	
4.85685	  0.087255	  0.069052	  0.020771	
4.89012	  0.085839	  0.069855	  0.019881	
4.92339	  0.084464	  0.070615	  0.019771	
4.95665	  0.083938	  0.071423	  0.021071	
4.98992	  0.085466	  0.072442	  0.024426	
5.02319	  0.090062	  0.073928	  0.030433	
5.05645	  0.098317	  0.076492	  0.039789	
5.08972	  0.110490	  0.081089	  0.053675	
5.12298	  0.126325	  0.088608	  0.073710	
5.15625	  0.146459	  0.099840	  0.101355	
5.18952	  0.172045	  0.115749	  0.137251	
5.22278	  0.202438	  0.136791	  0.180416	
5.25605	  0.234986	  0.162272	  0.227646	
5.28931	  0.265098	  0.189997	  0.273411	
5.32258	  0.287903	  0.217134	  0.312872	
5.35585	  0.302347	  0.241715	  0.344015	
5.38911	  0.310977	  0.262821	  0.368385	
5.42238	  0.317772	  0.280045	  0.388534	
5.45565	  0.324289	  0.292832	  0.407261	
5.48891	  0.329542	  0.302675	  0.426621	
5.52218	  0.333777	  0.311204	  0.448562	
5.55544	  0.338584	  0.318986	  0.472279	
5.58871	  0.346411	  0.325709	  0.496096	
5.62198	  0.357895	  0.331291	  0.516149	
5.65524	  0.372516	  0.335981	  0.528554	
5.68851	  0.388859	  0.339599	  0.532862	
5.72177	  0.404820	  0.341150	  0.531674	
5.75504	  0.418613	  0.340477	  0.527780	
5.78831	  0.429430	  0.339115	  0.522141	
5.82157	  0.435797	  0.338918	  0.514995	
5.85484	  0.438414	  0.341404	  0.507411	
5.8881	  0.439891	  0.347921	  0.502751	
5.92137	  0.442207	  0.358176	  0.504755	
5.95464	  0.444755	  0.370209	  0.514847	
5.9879	  0.447636	  0.381950	  0.531941	
6.02117	  0.452294	  0.392752	  0.552532	
6.05444	  0.460417	  0.404046	  0.572440	
6.0877	  0.471466	  0.417766	  0.588385	
6.12097	  0.485972	  0.434599	  0.601690	
6.15423	  0.503452	  0.454184	  0.614723	
6.1875	  0.521731	  0.474315	  0.629239	
6.22077	  0.540397	  0.493918	  0.645910	
6.25403	  0.559863	  0.513150	  0.663637	
6.2873	  0.578095	  0.529262	  0.679863	
6.32056	  0.593230	  0.537966	  0.692701	
6.35383	  0.603574	  0.537441	  0.702615	
6.3871	  0.607447	  0.529505	  0.710346	
6.42036	  0.604519	  0.520290	  0.714340	
6.45363	  0.595766	  0.513473	  0.714681	
6.4869	  0.586211	  0.510020	  0.714512	
6.52016	  0.581096	  0.510566	  0.715081	
6.55343	  0.583699	  0.518058	  0.715624	
6.58669	  0.594910	  0.534282	  0.715913	
6.61996	  0.612199	  0.557527	  0.716498	
6.65323	  0.631027	  0.582728	  0.717743	
6.68649	  0.650285	  0.605139	  0.720826	
6.71976	  0.667934	  0.618829	  0.726611	
6.75302	  0.680170	  0.622735	  0.734166	
6.78629	  0.686625	  0.621183	  0.742190	
6.81956	  0.689693	  0.618937	  0.751570	
6.85282	  0.692315	  0.619257	  0.762052	
6.88609	  0.695280	  0.623198	  0.773847	
6.91935	  0.698551	  0.630575	  0.789602	
6.95262	  0.702174	  0.640116	  0.810426	
6.98589	  0.704081	  0.648726	  0.832383	
7.01915	  0.701951	  0.654469	  0.851611	
7.05242	  0.696222	  0.657187	  0.866770	
7.08569	  0.688236	  0.656236	  0.875564	
7.11895	  0.677290	  0.650098	  0.873643	
7.15222	  0.663318	  0.637064	  0.859622	
7.18548	  0.647925	  0.618557	  0.837417	
7.21875	  0.635120	  0.599493	  0.814682	
7.25202	  0.628227	  0.585621	  0.796851	
7.28528	  0.628405	  0.578546	  0.786567	
7.31855	  0.633911	  0.575679	  0.782321	
7.35181	  0.642815	  0.577194	  0.780374	
7.38508	  0.653371	  0.583932	  0.775622	
7.41835	  0.665119	  0.597959	  0.763423	
7.45161	  0.677160	  0.617979	  0.743693	
7.48488	  0.688244	  0.637564	  0.722665	
7.51815	  0.700415	  0.654584	  0.706038	
7.55141	  0.717103	  0.673118	  0.695501	
7.58468	  0.736620	  0.693049	  0.692283	
7.61794	  0.754936	  0.710436	  0.697469	
7.65121	  0.770221	  0.722245	  0.714002	
7.68448	  0.780738	  0.727600	  0.740577	
7.71774	  0.785122	  0.723421	  0.773643	
7.75101	  0.787254	  0.712189	  0.807266	
7.78427	  0.790327	  0.700568	  0.835558	
7.81754	  0.792966	  0.691214	  0.855083	
7.85081	  0.795818	  0.685331	  0.864308	
7.88407	  0.799923	  0.683929	  0.863944	
7.91734	  0.805263	  0.689473	  0.853866	
7.9506	  0.809865	  0.700636	  0.833995	
7.98387	  0.812694	  0.716071	  0.805931	
8.01714	  0.811936	  0.732697	  0.775614	
8.0504	  0.808593	  0.746499	  0.747403	
8.08367	  0.803374	  0.753808	  0.724843	
8.11694	  0.797910	  0.753844	  0.710948	
8.1502	  0.797567	  0.753051	  0.709119	
8.18347	  0.806720	  0.759136	  0.717709	
8.21673	  0.823824	  0.773649	  0.731718	
8.25	  0.841009	  0.791274	  0.749912	
8.28327	  0.852829	  0.807571	  0.771583	
8.31653	  0.858068	  0.822582	  0.794071	
8.3498	  0.855547	  0.834624	  0.814799	
8.38306	  0.845038	  0.838152	  0.830040	
8.41633	  0.831372	  0.828739	  0.838826	
8.4496	  0.818908	  0.806932	  0.842481	
8.48286	  0.809387	  0.780772	  0.842945	
8.51613	  0.799969	  0.755831	  0.841321	
8.5494	  0.788384	  0.732083	  0.839903	
8.58266	  0.774097	  0.710459	  0.841260	
8.61593	  0.758645	  0.694517	  0.846362	
8.64919	  0.743003	  0.682790	  0.853896	
8.68246	  0.729616	  0.675079	  0.859891	
8.71573	  0.719619	  0.672507	  0.862507	
8.74899	  0.713529	  0.675443	  0.861733	
8.78226	  0.712524	  0.683645	  0.857999	
8.81552	  0.716588	  0.696346	  0.852492	
8.84879	  0.722813	  0.710526	  0.845320	
8.88206	  0.727801	  0.720115	  0.835564	
8.91532	  0.728209	  0.719590	  0.819059	
8.94859	  0.722263	  0.708820	  0.794741	
8.98185	  0.711712	  0.693759	  0.768923	
9.01512	  0.703934	  0.683698	  0.747874	
9.04839	  0.703292	  0.684932	  0.733818	
9.08165	  0.707660	  0.696140	  0.726446	
9.11492	  0.711240	  0.709694	  0.725644	
9.14819	  0.712961	  0.721212	  0.732338	
9.18145	  0.714105	  0.728542	  0.746560	
9.21472	  0.716434	  0.732011	  0.767922	
9.24798	  0.718171	  0.729770	  0.792178	
9.28125	  0.714741	  0.715195	  0.810980	
9.31452	  0.702904	  0.687984	  0.816134	
9.34778	  0.681474	  0.653724	  0.804552	
9.38105	  0.653262	  0.616806	  0.783774	
9.41431	  0.622939	  0.579108	  0.764143	
9.44758	  0.593104	  0.542767	  0.750912	
9.48085	  0.567705	  0.512052	  0.744191	
9.51411	  0.550229	  0.489275	  0.743777	
9.54738	  0.540771	  0.475483	  0.750141	
9.58065	  0.538984	  0.472138	  0.762764	
9.61391	  0.545753	  0.481312	  0.778566	
9.64718	  0.559751	  0.500798	  0.793252	
9.68044	  0.577424	  0.524612	  0.804568	
9.71371	  0.594942	  0.548433	  0.809388	
9.74698	  0.609617	  0.570155	  0.807797	
9.78024	  0.620430	  0.587462	  0.798258	
9.81351	  0.627548	  0.599013	  0.782032	
9.84677	  0.632325	  0.604693	  0.762361	
9.88004	  0.633205	  0.603866	  0.740963	
9.91331	  0.626401	  0.595317	  0.717409	
9.94657	  0.605582	  0.574707	  0.686201	
9.97984	  0.568846	  0.538665	  0.641326	
10.0131	  0.517242	  0.485993	  0.577498	
10.0464	  0.453576	  0.421317	  0.497938	
10.0796	  0.382852	  0.350719	  0.411644	
10.1129	  0.311990	  0.280270	  0.326150	
10.1462	  0.247380	  0.216025	  0.247661	
10.1794	  0.193268	  0.161689	  0.180085	
10.2127	  0.151545	  0.119143	  0.125048	
10.246	  0.121754	  0.088613	  0.082615	
10.2792	  0.101842	  0.069041	  0.052216	
10.3125	  0.089354	  0.058313	  0.032187	
10.3458	  0.082231	  0.054042	  0.020264	
10.379	  0.078750	  0.054179	  0.014051	
10.4123	  0.077597	  0.056769	  0.011409	
10.4456	  0.077895	  0.059956	  0.010870	
10.4788	  0.079032	  0.062240	  0.011562	
10.5121	  0.080459	  0.062917	  0.012845	
10.5454	  0.081679	  0.062057	  0.014316	
10.5786	  0.082580	  0.060175	  0.015785	
10.6119	  0.083172	  0.057932	  0.017076	
10.6452	  0.083411	  0.055755	  0.018124	
10.6784	  0.083454	  0.053956	  0.018921	
10.7117	  0.083540	  0.052803	  0.019473	
10.745	  0.083925	  0.052341	  0.019784	
10.7782	  0.084678	  0.052501	  0.019966	
10.8115	  0.085703	  0.053038	  0.020207	
10.8448	  0.087193	  0.053797	  0.020639	
10.878	  0.089512	  0.054689	  0.021342	
10.9113	  0.092836	  0.055451	  0.022265	
10.9446	  0.096720	  0.055622	  0.023326	
10.9778	  0.100306	  0.055092	  0.024541	
11.0111	  0.102781	  0.054183	  0.025880	
11.0444	  0.103942	  0.053256	  0.027178	
11.0776	  0.104100	  0.052550	  0.028170	
11.1109	  0.103549	  0.052288	  0.028699	
11.1442	  0.102762	  0.052600	  0.028754	
